<svg width="346" height="52" viewBox="0 0 346 52" fill="none" xmlns="http://www.w3.org/2000/svg">
<path d="M22.8203 0.648438C24.4453 0.648438 25.8672 0.859375 27.0859 1.28125C28.3203 1.70312 29.3516 2.28906 30.1797 3.03906C31.0078 3.77344 31.625 4.64062 32.0312 5.64062C32.4531 6.625 32.6641 7.67969 32.6641 8.80469C32.6641 10.0391 32.4531 11.2266 32.0312 12.3672C31.625 13.4922 31.0547 14.5625 30.3203 15.5781C29.6016 16.5938 28.75 17.5469 27.7656 18.4375C26.7812 19.3281 25.7266 20.1406 24.6016 20.875C23.4766 21.6094 22.3047 22.2656 21.0859 22.8438C19.8828 23.4219 18.6875 23.9062 17.5 24.2969C18.3438 25.0469 19.1094 25.9219 19.7969 26.9219C20.4844 27.9062 21.1406 28.9609 21.7656 30.0859C22.3906 31.1953 23.0078 32.3359 23.6172 33.5078C24.2266 34.6797 24.8672 35.8203 25.5391 36.9297C26.2109 38.0234 26.9375 39.0625 27.7188 40.0469C28.5156 41.0312 29.4141 41.8906 30.4141 42.625C31.4297 43.375 32.5625 43.9609 33.8125 44.3828C35.0625 44.8203 36.4922 45.0391 38.1016 45.0391L38.1953 46C37.9922 46.0469 37.7578 46.0859 37.4922 46.1172C37.2734 46.1484 37 46.1719 36.6719 46.1875C36.3438 46.2188 35.9688 46.2344 35.5469 46.2344C33.5156 46.2344 31.7422 46 30.2266 45.5312C28.7109 45.0781 27.3906 44.4531 26.2656 43.6562C25.1562 42.875 24.2109 41.9609 23.4297 40.9141C22.6484 39.8828 21.9609 38.7891 21.3672 37.6328C20.7891 36.4609 20.2812 35.2734 19.8438 34.0703C19.4062 32.8516 18.9688 31.6797 18.5312 30.5547C18.1094 29.4141 17.6562 28.3594 17.1719 27.3906C16.7031 26.4062 16.1406 25.5703 15.4844 24.8828C15.1719 24.9609 14.8594 25.0234 14.5469 25.0703C14.25 25.1172 13.9531 25.1641 13.6562 25.2109C13.6406 26.3359 13.6172 27.3125 13.5859 28.1406C13.5703 28.9531 13.5469 29.6719 13.5156 30.2969C13.4844 30.9062 13.4453 31.4453 13.3984 31.9141C13.3516 32.3828 13.2969 32.8359 13.2344 33.2734C13.0625 34.4922 12.8125 35.5312 12.4844 36.3906C12.1562 37.2344 11.7578 37.9297 11.2891 38.4766C10.8203 39.0078 10.2812 39.3984 9.67188 39.6484C9.07812 39.8828 8.42188 40 7.70312 40C6.6875 40 5.73438 39.7031 4.84375 39.1094C3.96875 38.5156 3.21094 37.6328 2.57031 36.4609C1.92969 35.2891 1.42188 33.8359 1.04688 32.1016C0.6875 30.3672 0.507812 28.3594 0.507812 26.0781C0.507812 23.6875 0.765625 21.3984 1.28125 19.2109C1.79688 17.0078 2.52344 14.9688 3.46094 13.0938C4.41406 11.2031 5.5625 9.49219 6.90625 7.96094C8.25 6.42969 9.74219 5.125 11.3828 4.04688C13.0391 2.95312 14.8281 2.11719 16.75 1.53906C18.6875 0.945313 20.7109 0.648438 22.8203 0.648438ZM8.42969 23.4297C8.42969 23.0234 8.58594 22.6797 8.89844 22.3984C9.22656 22.1016 9.66406 21.9062 10.2109 21.8125C10.1797 20.2812 10.1406 18.8828 10.0938 17.6172C10.0469 16.3516 10.0078 15.2578 9.97656 14.3359C9.92969 13.2578 9.89062 12.2891 9.85938 11.4297C9.96875 11.3359 10.0938 11.2578 10.2344 11.1953C10.3594 11.1328 10.5078 11.0781 10.6797 11.0312C10.8516 10.9844 11.0625 10.9609 11.3125 10.9609C12.0312 10.9609 12.6094 11.0938 13.0469 11.3594C13.4844 11.6094 13.7031 12.0391 13.7031 12.6484C13.7031 14.4922 13.7031 16.2031 13.7031 17.7812C13.7031 19.3438 13.6875 20.8125 13.6562 22.1875C14.1562 22.3281 14.6328 22.5078 15.0859 22.7266C15.5547 22.9297 15.9922 23.1641 16.3984 23.4297C17.8359 23.0391 19.2812 22.4766 20.7344 21.7422C22.1875 21.0078 23.4922 20.0781 24.6484 18.9531C25.8203 17.8125 26.7656 16.4688 27.4844 14.9219C28.2188 13.3594 28.5859 11.5625 28.5859 9.53125C28.5859 8.20312 28.3984 7.07031 28.0234 6.13281C27.6641 5.19531 27.1719 4.42969 26.5469 3.83594C25.9219 3.22656 25.1797 2.78125 24.3203 2.5C23.4766 2.21875 22.5781 2.07812 21.625 2.07812C20.0312 2.07812 18.4609 2.3125 16.9141 2.78125C15.3828 3.23437 13.9297 3.92969 12.5547 4.86719C11.1953 5.80469 9.9375 6.99219 8.78125 8.42969C7.64062 9.86719 6.64844 11.5625 5.80469 13.5156C4.97656 15.4688 4.32812 17.6875 3.85938 20.1719C3.39062 22.6562 3.15625 25.4219 3.15625 28.4688C3.15625 29.7969 3.21875 31.0859 3.34375 32.3359C3.48438 33.5703 3.71094 34.6719 4.02344 35.6406C4.33594 36.5938 4.75 37.3594 5.26562 37.9375C5.79688 38.5156 6.45312 38.8047 7.23438 38.8047C7.65625 38.8047 8.05469 38.7188 8.42969 38.5469C8.80469 38.375 9.13281 38.0234 9.41406 37.4922C9.69531 36.9453 9.92188 36.1719 10.0938 35.1719C10.2656 34.1562 10.3516 32.8047 10.3516 31.1172C10.3516 30.5078 10.3516 29.9688 10.3516 29.5C10.3516 29.0156 10.3516 28.5547 10.3516 28.1172C10.3516 27.6641 10.3438 27.2109 10.3281 26.7578C10.3281 26.3047 10.3203 25.8047 10.3047 25.2578C9.71094 25.1172 9.25 24.8906 8.92188 24.5781C8.59375 24.2656 8.42969 23.8828 8.42969 23.4297ZM9.625 23.4297C9.625 23.5859 9.64844 23.7188 9.69531 23.8281C9.75781 23.9375 9.94531 24.0312 10.2578 24.1094V23.0078C9.83594 23.1016 9.625 23.2422 9.625 23.4297ZM13.6562 24.0156C13.7812 24.0156 13.8984 24.0078 14.0078 23.9922C14.1328 23.9766 14.2578 23.9531 14.3828 23.9219C14.2578 23.8438 14.1328 23.7734 14.0078 23.7109C13.8984 23.6484 13.7812 23.5938 13.6562 23.5469V24.0156ZM38.3828 37.3516C38.9297 37.3516 39.4844 37.2109 40.0469 36.9297C40.625 36.6484 41.2031 36.2109 41.7812 35.6172C42.375 35.0234 42.9844 34.2578 43.6094 33.3203C44.2344 32.3672 44.875 31.2344 45.5312 29.9219L45.7656 29.4297L46.7266 30.1562L46.4922 30.6484C45.6484 32.3203 44.8047 33.75 43.9609 34.9375C43.1328 36.125 42.3125 37.0938 41.5 37.8438C40.7031 38.5938 39.9141 39.1406 39.1328 39.4844C38.3516 39.8281 37.6016 40 36.8828 40C35.8672 40 34.9609 39.7891 34.1641 39.3672C33.3672 38.9453 32.6953 38.375 32.1484 37.6562C31.6016 36.9219 31.1875 36.0781 30.9062 35.125C30.6094 34.1562 30.4609 33.1406 30.4609 32.0781C30.4609 30.3906 30.6953 28.8594 31.1641 27.4844C31.6172 26.0938 32.2266 24.9062 32.9922 23.9219C33.7734 22.9375 34.6562 22.1719 35.6406 21.625C36.625 21.0781 37.6484 20.8047 38.7109 20.8047C39.7891 20.8047 40.6094 21.0781 41.1719 21.625C41.75 22.1719 42.0391 22.8594 42.0391 23.6875C42.0391 24.4844 41.8125 25.2344 41.3594 25.9375C40.9062 26.625 40.2891 27.3047 39.5078 27.9766C38.7422 28.6328 37.8516 29.2891 36.8359 29.9453C35.8203 30.5859 34.75 31.25 33.625 31.9375C33.7344 32.75 33.9219 33.4922 34.1875 34.1641C34.4531 34.8203 34.7891 35.3906 35.1953 35.875C35.6016 36.3438 36.0703 36.7109 36.6016 36.9766C37.1328 37.2266 37.7266 37.3516 38.3828 37.3516ZM39.1094 24.3906C39.1094 23.7656 38.9375 23.2734 38.5938 22.9141C38.2656 22.5547 37.8594 22.375 37.375 22.375C36.9688 22.375 36.5391 22.5234 36.0859 22.8203C35.6328 23.1016 35.2188 23.5625 34.8438 24.2031C34.4688 24.8281 34.1562 25.6328 33.9062 26.6172C33.6562 27.6016 33.5312 28.7969 33.5312 30.2031V30.7422C34.0625 30.4609 34.6484 30.0938 35.2891 29.6406C35.9453 29.1719 36.5547 28.6562 37.1172 28.0938C37.6797 27.5312 38.1484 26.9375 38.5234 26.3125C38.9141 25.6719 39.1094 25.0312 39.1094 24.3906ZM59.4531 31.8438C59.4531 32.9062 59.2891 33.9297 58.9609 34.9141C58.6484 35.8828 58.1797 36.75 57.5547 37.5156C56.9453 38.2656 56.1797 38.8672 55.2578 39.3203C54.3516 39.7734 53.3125 40 52.1406 40C51.2969 40 50.5391 39.8672 49.8672 39.6016C49.2109 39.3203 48.6484 38.9531 48.1797 38.5C47.7109 38.0312 47.3516 37.5078 47.1016 36.9297C46.8516 36.3359 46.7266 35.7266 46.7266 35.1016C46.7266 34.4766 46.8438 33.8984 47.0781 33.3672C47.3281 32.8203 47.6562 32.3594 48.0625 31.9844C48.4844 31.5938 48.9609 31.2891 49.4922 31.0703C50.0234 30.8516 50.5859 30.7422 51.1797 30.7422C51.5547 30.7422 51.9453 30.7891 52.3516 30.8828V31.5625C51.8516 31.5625 51.3594 31.6641 50.875 31.8672C50.4062 32.0703 49.9844 32.3516 49.6094 32.7109C49.25 33.0547 48.9609 33.4766 48.7422 33.9766C48.5234 34.4609 48.4141 34.9844 48.4141 35.5469C48.4141 36.5781 48.7656 37.4062 49.4688 38.0312C50.1875 38.6406 51.1641 38.9453 52.3984 38.9453C53.0234 38.9453 53.5938 38.8281 54.1094 38.5938C54.625 38.3438 55.0625 38.0078 55.4219 37.5859C55.7969 37.1484 56.0781 36.6328 56.2656 36.0391C56.4688 35.4453 56.5703 34.7969 56.5703 34.0938C56.5703 33.4219 56.4375 32.7969 56.1719 32.2188C55.9062 31.6406 55.5547 31.0938 55.1172 30.5781C54.6797 30.0625 54.1797 29.5781 53.6172 29.125C53.0703 28.6719 52.5078 28.2422 51.9297 27.8359C51.3672 27.4141 50.8125 27.0078 50.2656 26.6172C49.7188 26.2266 49.2422 25.8359 48.8359 25.4453L46.4922 30.6484L45.5312 29.9219L47.9219 24.6953C47.3438 24.1484 46.9141 23.6328 46.6328 23.1484C46.3672 22.6484 46.2344 22.0547 46.2344 21.3672C46.2344 20.9922 46.2969 20.6406 46.4219 20.3125C46.5625 19.9688 46.7422 19.6797 46.9609 19.4453C47.1953 19.1953 47.4609 19 47.7578 18.8594C48.0547 18.7188 48.3672 18.6484 48.6953 18.6484C49.2891 18.6484 49.7344 18.8203 50.0312 19.1641C50.3281 19.4922 50.4766 19.9062 50.4766 20.4062C50.4766 20.6406 50.4531 20.8906 50.4062 21.1562C50.3594 21.4062 50.2969 21.6641 50.2188 21.9297C50.1562 22.1797 50.0859 22.4141 50.0078 22.6328C49.9453 22.8516 49.8906 23.0391 49.8438 23.1953C50.3125 23.5547 50.875 23.9062 51.5312 24.25C52.1875 24.5781 52.8672 24.9219 53.5703 25.2812C54.2891 25.6406 55 26.0312 55.7031 26.4531C56.4062 26.875 57.0312 27.3438 57.5781 27.8594C58.1406 28.375 58.5938 28.9609 58.9375 29.6172C59.2812 30.2734 59.4531 31.0156 59.4531 31.8438ZM48.7422 19.7031C48.5234 19.7031 48.3438 19.7812 48.2031 19.9375C48.0781 20.0781 48.0156 20.2734 48.0156 20.5234C48.0156 20.8047 48.0859 21.1172 48.2266 21.4609C48.3672 21.8047 48.6172 22.1406 48.9766 22.4688C49.1328 22.1406 49.25 21.8203 49.3281 21.5078C49.4219 21.1953 49.4688 20.8828 49.4688 20.5703C49.4688 20.3203 49.3984 20.1172 49.2578 19.9609C49.1328 19.7891 48.9609 19.7031 48.7422 19.7031ZM61.2812 32.3125C61.2812 30.6562 61.3438 28.9922 61.4688 27.3203C61.5938 25.6484 61.7578 23.9531 61.9609 22.2344H59.8281L60.0859 20.8047H62.1484C62.3672 19.2109 62.5859 17.6172 62.8047 16.0234C63.0391 14.4141 63.25 12.8047 63.4375 11.1953H65.8281C65.7969 11.5391 65.75 12.0391 65.6875 12.6953C65.6406 13.3359 65.5781 14.0859 65.5 14.9453C65.4375 15.7891 65.375 16.7188 65.3125 17.7344C65.25 18.7344 65.1875 19.7578 65.125 20.8047H69.6719L69.4375 22.2344H65.0312C64.9688 23.125 64.9141 24 64.8672 24.8594C64.8203 25.7188 64.7734 26.5391 64.7266 27.3203C64.6953 28.0859 64.6719 28.7969 64.6562 29.4531C64.6406 30.0938 64.6328 30.6484 64.6328 31.1172C64.6328 32.3047 64.6641 33.2969 64.7266 34.0938C64.8047 34.8906 64.9141 35.5312 65.0547 36.0156C65.2109 36.5 65.3984 36.8438 65.6172 37.0469C65.8516 37.25 66.1172 37.3516 66.4141 37.3516C66.8047 37.3516 67.2344 37.1562 67.7031 36.7656C68.1875 36.3594 68.6875 35.8203 69.2031 35.1484C69.7188 34.4766 70.2422 33.6953 70.7734 32.8047C71.3047 31.8984 71.8203 30.9375 72.3203 29.9219L72.5547 29.4297L73.5156 30.1562L73.2812 30.6484C72.5625 32.1016 71.8438 33.4062 71.125 34.5625C70.4219 35.7188 69.7266 36.7031 69.0391 37.5156C68.3516 38.3125 67.6797 38.9297 67.0234 39.3672C66.3672 39.7891 65.7344 40 65.125 40C64.5156 40 63.9688 39.8594 63.4844 39.5781C63.0156 39.2969 62.6172 38.8516 62.2891 38.2422C61.9609 37.6172 61.7109 36.8203 61.5391 35.8516C61.3672 34.8828 61.2812 33.7031 61.2812 32.3125ZM86.7812 34.1875C86.7812 35.0781 86.8594 35.8281 87.0156 36.4375C87.1719 37.0469 87.4453 37.3516 87.8359 37.3516C88.0703 37.3516 88.3203 37.2422 88.5859 37.0234C88.8672 36.7891 89.1875 36.4141 89.5469 35.8984C89.9062 35.3828 90.3125 34.7188 90.7656 33.9062C91.2344 33.0781 91.7656 32.0703 92.3594 30.8828L93.0625 29.4297L94.0234 30.1562L93.3203 31.6094C92.6641 32.9219 92.0469 34.1016 91.4688 35.1484C90.9062 36.1797 90.3672 37.0547 89.8516 37.7734C89.3359 38.4922 88.8281 39.0469 88.3281 39.4375C87.8438 39.8125 87.3594 40 86.875 40C86.3594 40 85.9219 39.8594 85.5625 39.5781C85.2188 39.2969 84.9297 38.9141 84.6953 38.4297C84.4609 37.9297 84.2812 37.3594 84.1562 36.7188C84.0312 36.0625 83.9453 35.3672 83.8984 34.6328C83.5234 35.3828 83.1094 36.0859 82.6562 36.7422C82.2031 37.3828 81.7266 37.9453 81.2266 38.4297C80.7422 38.9141 80.2344 39.2969 79.7031 39.5781C79.1719 39.8594 78.6406 40 78.1094 40C77.3281 40 76.5703 39.8359 75.8359 39.5078C75.1016 39.1797 74.4453 38.6797 73.8672 38.0078C73.3047 37.3359 72.8516 36.4922 72.5078 35.4766C72.1641 34.4453 71.9922 33.2344 71.9922 31.8438C71.9922 30.2188 72.2031 28.7344 72.625 27.3906C73.0469 26.0312 73.6172 24.8672 74.3359 23.8984C75.0547 22.9141 75.8828 22.1562 76.8203 21.625C77.7578 21.0781 78.7422 20.8047 79.7734 20.8047C80.3984 20.8047 80.9766 20.9453 81.5078 21.2266C82.0391 21.5078 82.5 21.8516 82.8906 22.2578C83.2969 22.6484 83.6328 23.0703 83.8984 23.5234C84.1641 23.9609 84.3438 24.3359 84.4375 24.6484L84.7188 22.375C84.75 22.0781 84.8906 21.8281 85.1406 21.625C85.4062 21.4219 85.6953 21.2656 86.0078 21.1562C86.3203 21.0312 86.625 20.9453 86.9219 20.8984C87.2188 20.8359 87.4297 20.8047 87.5547 20.8047C87.7422 20.8047 87.8672 20.8359 87.9297 20.8984C87.9922 20.9609 88.0234 21.0859 88.0234 21.2734C88.0234 21.5078 87.9531 21.9844 87.8125 22.7031C87.6875 23.4062 87.5469 24.3125 87.3906 25.4219C87.25 26.5156 87.1094 27.8047 86.9688 29.2891C86.8438 30.7734 86.7812 32.4062 86.7812 34.1875ZM84.2031 28C84.2031 27.2812 84.0938 26.5781 83.875 25.8906C83.6562 25.1875 83.3594 24.5703 82.9844 24.0391C82.6094 23.4922 82.1719 23.0547 81.6719 22.7266C81.1875 22.3984 80.6719 22.2344 80.125 22.2344C79.4531 22.2344 78.8203 22.4297 78.2266 22.8203C77.6484 23.1953 77.1406 23.7344 76.7031 24.4375C76.2812 25.125 75.9453 25.9609 75.6953 26.9453C75.4453 27.9141 75.3203 28.9844 75.3203 30.1562C75.3203 32.5 75.6875 34.2891 76.4219 35.5234C77.1562 36.7422 78.1328 37.3516 79.3516 37.3516C79.8828 37.3516 80.4297 37.1406 80.9922 36.7188C81.5703 36.2812 82.0938 35.6641 82.5625 34.8672C83.0469 34.0547 83.4375 33.0703 83.7344 31.9141C84.0469 30.7578 84.2031 29.4531 84.2031 28ZM102.672 34.9141C102.594 35.0391 102.477 35.2578 102.32 35.5703C102.18 35.8672 101.992 36.2031 101.758 36.5781C101.539 36.9531 101.273 37.3438 100.961 37.75C100.664 38.1562 100.32 38.5234 99.9297 38.8516C99.5391 39.1797 99.1016 39.4531 98.6172 39.6719C98.1484 39.8906 97.625 40 97.0469 40C96.5938 40 96.125 39.9062 95.6406 39.7188C95.1562 39.5312 94.7031 39.1875 94.2812 38.6875C93.875 38.1875 93.5391 37.5078 93.2734 36.6484C93.0078 35.7734 92.875 34.6484 92.875 33.2734C92.875 31.9609 92.9219 30.6484 93.0156 29.3359C93.1094 28.0078 93.2188 26.7969 93.3438 25.7031C93.4844 24.6094 93.6172 23.6953 93.7422 22.9609C93.8672 22.2266 93.9609 21.7812 94.0234 21.625C94.0859 21.4844 94.2109 21.3594 94.3984 21.25C94.5859 21.1406 94.7969 21.0547 95.0312 20.9922C95.2812 20.9297 95.5312 20.8828 95.7812 20.8516C96.0469 20.8203 96.2734 20.8047 96.4609 20.8047C96.7109 20.8047 96.9062 20.8672 97.0469 20.9922C97.2031 21.1172 97.2812 21.3281 97.2812 21.625C97.2812 21.7656 97.25 22.0469 97.1875 22.4688C97.1406 22.875 97.0781 23.375 97 23.9688C96.9219 24.5625 96.8359 25.2188 96.7422 25.9375C96.6641 26.6562 96.5859 27.3906 96.5078 28.1406C96.4297 28.875 96.3594 29.6094 96.2969 30.3438C96.25 31.0625 96.2266 31.7188 96.2266 32.3125C96.2266 34.0156 96.4062 35.2812 96.7656 36.1094C97.1406 36.9375 97.75 37.3516 98.5938 37.3516C99.3125 37.3516 100.039 36.8281 100.773 35.7812C101.523 34.7344 102.172 33.2109 102.719 31.2109C102.797 30.3672 102.867 29.4688 102.93 28.5156C103.008 27.5469 103.078 26.6328 103.141 25.7734C103.203 24.8984 103.258 24.1172 103.305 23.4297C103.367 22.7422 103.422 22.25 103.469 21.9531C103.516 21.7344 103.641 21.5547 103.844 21.4141C104.047 21.2578 104.273 21.1406 104.523 21.0625C104.789 20.9688 105.039 20.9062 105.273 20.875C105.523 20.8281 105.711 20.8047 105.836 20.8047C106.102 20.8047 106.281 20.8672 106.375 20.9922C106.484 21.1016 106.539 21.2812 106.539 21.5312C106.539 21.75 106.516 22.1719 106.469 22.7969C106.438 23.4062 106.391 24.125 106.328 24.9531C106.281 25.7656 106.227 26.6406 106.164 27.5781C106.102 28.5156 106.039 29.4219 105.977 30.2969C105.93 31.1562 105.883 31.9375 105.836 32.6406C105.805 33.3438 105.789 33.875 105.789 34.2344C105.789 35.2969 105.844 36.1328 105.953 36.7422C106.078 37.3516 106.344 37.6562 106.75 37.6562C107.047 37.6562 107.367 37.4688 107.711 37.0938C108.07 36.7031 108.453 36.1641 108.859 35.4766C109.281 34.7891 109.734 33.9766 110.219 33.0391C110.703 32.0859 111.227 31.0469 111.789 29.9219L112.023 29.4297L112.984 30.1562L112.75 30.6484C112 32.1328 111.336 33.4609 110.758 34.6328C110.195 35.7891 109.656 36.7656 109.141 37.5625C108.625 38.3594 108.102 38.9688 107.57 39.3906C107.039 39.7969 106.445 40 105.789 40C105.18 40 104.672 39.8828 104.266 39.6484C103.875 39.4141 103.562 39.0781 103.328 38.6406C103.094 38.2031 102.922 37.6719 102.812 37.0469C102.719 36.4219 102.672 35.7109 102.672 34.9141ZM111.812 29.9219L112.047 29.4297C112.281 28.9609 112.492 28.4766 112.68 27.9766C112.883 27.4766 113.055 27.0078 113.195 26.5703C113.336 26.1172 113.445 25.7188 113.523 25.375C113.602 25.0156 113.656 24.7422 113.688 24.5547C113.281 24.5078 112.891 24.4062 112.516 24.25C112.141 24.0938 111.812 23.8828 111.531 23.6172C111.25 23.3516 111.031 23.0391 110.875 22.6797C110.703 22.3203 110.617 21.9141 110.617 21.4609C110.617 21.1016 110.68 20.7812 110.805 20.5C110.93 20.2188 111.102 19.9844 111.32 19.7969C111.523 19.6094 111.758 19.4688 112.023 19.375C112.273 19.2656 112.539 19.2109 112.82 19.2109C113.195 19.2109 113.523 19.2891 113.805 19.4453C114.086 19.6016 114.32 19.8125 114.508 20.0781C114.695 20.3281 114.836 20.625 114.93 20.9688C115.023 21.2969 115.07 21.6406 115.07 22C115.508 22 115.977 21.9375 116.477 21.8125C116.992 21.6875 117.508 21.5547 118.023 21.4141C118.539 21.2578 119.047 21.1172 119.547 20.9922C120.047 20.8672 120.508 20.8047 120.93 20.8047C121.289 20.8047 121.578 20.8828 121.797 21.0391C122.016 21.1797 122.125 21.4219 122.125 21.7656C122.125 22.0156 122.047 22.4297 121.891 23.0078C121.75 23.5859 121.57 24.2578 121.352 25.0234C121.133 25.7891 120.891 26.625 120.625 27.5312C120.375 28.4219 120.141 29.3281 119.922 30.25C119.703 31.1562 119.516 32.0391 119.359 32.8984C119.219 33.7578 119.148 34.5234 119.148 35.1953C119.148 36.0391 119.242 36.6094 119.43 36.9062C119.617 37.2031 119.953 37.3516 120.438 37.3516C120.641 37.3516 120.891 37.2656 121.188 37.0938C121.5 36.9062 121.875 36.5547 122.312 36.0391C122.75 35.5078 123.266 34.7578 123.859 33.7891C124.469 32.8047 125.172 31.5156 125.969 29.9219L126.203 29.4297L127.164 30.1562L126.93 30.6484C125.992 32.5234 125.156 34.0625 124.422 35.2656C123.688 36.4688 123.008 37.4219 122.383 38.125C121.773 38.8281 121.195 39.3203 120.648 39.6016C120.102 39.8672 119.555 40 119.008 40C118.086 40 117.336 39.6484 116.758 38.9453C116.18 38.2422 115.891 37.1562 115.891 35.6875C115.891 34.8906 116 34.0625 116.219 33.2031C116.438 32.3438 116.711 31.4922 117.039 30.6484C117.367 29.7891 117.734 28.9453 118.141 28.1172C118.547 27.2891 118.93 26.5078 119.289 25.7734C119.664 25.0234 120 24.3281 120.297 23.6875C120.594 23.0469 120.805 22.4844 120.93 22L120.789 21.8594C120.539 21.8594 120.203 21.9922 119.781 22.2578C119.359 22.5234 118.883 22.8281 118.352 23.1719C117.836 23.5 117.281 23.8125 116.688 24.1094C116.094 24.4062 115.492 24.5859 114.883 24.6484C114.852 24.8672 114.781 25.1875 114.672 25.6094C114.578 26.0312 114.445 26.5 114.273 27.0156C114.102 27.5312 113.906 28.0625 113.688 28.6094C113.469 29.1562 113.242 29.6719 113.008 30.1562L112.773 30.6484L111.812 29.9219ZM112.961 20.5234C112.82 20.5234 112.703 20.5703 112.609 20.6641C112.516 20.7578 112.469 20.8672 112.469 20.9922C112.469 21.1797 112.516 21.3438 112.609 21.4844C112.703 21.6094 112.82 21.7188 112.961 21.8125C113.102 21.8906 113.242 21.9531 113.383 22C113.539 22.0312 113.672 22.0469 113.781 22.0469C113.781 21.6094 113.711 21.25 113.57 20.9688C113.43 20.6719 113.227 20.5234 112.961 20.5234ZM140.406 34.1875C140.406 35.0781 140.484 35.8281 140.641 36.4375C140.797 37.0469 141.07 37.3516 141.461 37.3516C141.695 37.3516 141.945 37.2422 142.211 37.0234C142.492 36.7891 142.812 36.4141 143.172 35.8984C143.531 35.3828 143.938 34.7188 144.391 33.9062C144.859 33.0781 145.391 32.0703 145.984 30.8828L146.688 29.4297L147.648 30.1562L146.945 31.6094C146.289 32.9219 145.672 34.1016 145.094 35.1484C144.531 36.1797 143.992 37.0547 143.477 37.7734C142.961 38.4922 142.453 39.0469 141.953 39.4375C141.469 39.8125 140.984 40 140.5 40C139.984 40 139.547 39.8594 139.188 39.5781C138.844 39.2969 138.555 38.9141 138.32 38.4297C138.086 37.9297 137.906 37.3594 137.781 36.7188C137.656 36.0625 137.57 35.3672 137.523 34.6328C137.148 35.3828 136.734 36.0859 136.281 36.7422C135.828 37.3828 135.352 37.9453 134.852 38.4297C134.367 38.9141 133.859 39.2969 133.328 39.5781C132.797 39.8594 132.266 40 131.734 40C130.953 40 130.195 39.8359 129.461 39.5078C128.727 39.1797 128.07 38.6797 127.492 38.0078C126.93 37.3359 126.477 36.4922 126.133 35.4766C125.789 34.4453 125.617 33.2344 125.617 31.8438C125.617 30.2188 125.828 28.7344 126.25 27.3906C126.672 26.0312 127.242 24.8672 127.961 23.8984C128.68 22.9141 129.508 22.1562 130.445 21.625C131.383 21.0781 132.367 20.8047 133.398 20.8047C134.023 20.8047 134.602 20.9453 135.133 21.2266C135.664 21.5078 136.125 21.8516 136.516 22.2578C136.922 22.6484 137.258 23.0703 137.523 23.5234C137.789 23.9609 137.969 24.3359 138.062 24.6484L138.344 22.375C138.375 22.0781 138.516 21.8281 138.766 21.625C139.031 21.4219 139.32 21.2656 139.633 21.1562C139.945 21.0312 140.25 20.9453 140.547 20.8984C140.844 20.8359 141.055 20.8047 141.18 20.8047C141.367 20.8047 141.492 20.8359 141.555 20.8984C141.617 20.9609 141.648 21.0859 141.648 21.2734C141.648 21.5078 141.578 21.9844 141.438 22.7031C141.312 23.4062 141.172 24.3125 141.016 25.4219C140.875 26.5156 140.734 27.8047 140.594 29.2891C140.469 30.7734 140.406 32.4062 140.406 34.1875ZM137.828 28C137.828 27.2812 137.719 26.5781 137.5 25.8906C137.281 25.1875 136.984 24.5703 136.609 24.0391C136.234 23.4922 135.797 23.0547 135.297 22.7266C134.812 22.3984 134.297 22.2344 133.75 22.2344C133.078 22.2344 132.445 22.4297 131.852 22.8203C131.273 23.1953 130.766 23.7344 130.328 24.4375C129.906 25.125 129.57 25.9609 129.32 26.9453C129.07 27.9141 128.945 28.9844 128.945 30.1562C128.945 32.5 129.312 34.2891 130.047 35.5234C130.781 36.7422 131.758 37.3516 132.977 37.3516C133.508 37.3516 134.055 37.1406 134.617 36.7188C135.195 36.2812 135.719 35.6641 136.188 34.8672C136.672 34.0547 137.062 33.0703 137.359 31.9141C137.672 30.7578 137.828 29.4531 137.828 28ZM155.711 22.4219C155.273 22.4219 154.781 22.6172 154.234 23.0078C153.703 23.3984 153.164 23.9062 152.617 24.5312C152.07 25.1406 151.539 25.8281 151.023 26.5938C150.523 27.3594 150.086 28.1172 149.711 28.8672C149.664 30.2422 149.617 31.7422 149.57 33.3672C149.539 34.9922 149.523 36.7266 149.523 38.5703C149.523 38.8047 149.414 39.0156 149.195 39.2031C148.992 39.375 148.75 39.5234 148.469 39.6484C148.188 39.7578 147.898 39.8438 147.602 39.9062C147.305 39.9688 147.062 40 146.875 40C146.641 40 146.422 39.9297 146.219 39.7891C146.016 39.6484 145.914 39.3359 145.914 38.8516C145.914 38.6172 145.938 38.3281 145.984 37.9844C146.031 37.625 146.094 37.2422 146.172 36.8359C146.234 36.4297 146.312 36.0156 146.406 35.5938C146.484 35.1562 146.562 34.75 146.641 34.375V22.9141C146.641 22.6016 146.648 22.3594 146.664 22.1875C146.664 22 146.688 21.8594 146.734 21.7656C146.828 21.5469 146.992 21.375 147.227 21.25C147.461 21.125 147.711 21.0312 147.977 20.9688C148.242 20.8906 148.5 20.8438 148.75 20.8281C149 20.8125 149.195 20.8047 149.336 20.8047C149.602 20.8047 149.781 20.875 149.875 21.0156C149.984 21.1562 150.039 21.4062 150.039 21.7656C150.039 21.7188 150 22.1016 149.922 22.9141C149.859 23.7266 149.805 24.8906 149.758 26.4062C150.227 25.6719 150.734 24.9688 151.281 24.2969C151.828 23.625 152.398 23.0312 152.992 22.5156C153.586 22 154.195 21.5859 154.82 21.2734C155.461 20.9609 156.109 20.8047 156.766 20.8047C157.938 20.8047 158.797 21.1797 159.344 21.9297C159.891 22.6641 160.164 23.6641 160.164 24.9297C160.164 25.7266 160.109 26.6172 160 27.6016C159.906 28.5703 159.789 29.5625 159.648 30.5781C159.523 31.5781 159.406 32.5625 159.297 33.5312C159.203 34.4844 159.156 35.3594 159.156 36.1562C159.156 37.1875 159.477 37.7031 160.117 37.7031C160.32 37.7031 160.555 37.6016 160.82 37.3984C161.102 37.1797 161.445 36.7812 161.852 36.2031C162.273 35.625 162.773 34.8359 163.352 33.8359C163.93 32.8203 164.617 31.5156 165.414 29.9219L165.648 29.4297L166.609 30.1562L166.375 30.6484C165.438 32.5234 164.602 34.0625 163.867 35.2656C163.148 36.4688 162.492 37.4219 161.898 38.125C161.305 38.8281 160.75 39.3203 160.234 39.6016C159.719 39.8672 159.203 40 158.688 40C158.359 40 158.031 39.9531 157.703 39.8594C157.375 39.7656 157.086 39.6016 156.836 39.3672C156.586 39.1328 156.383 38.8203 156.227 38.4297C156.07 38.0234 155.992 37.5078 155.992 36.8828C155.992 35.9453 156.055 34.8906 156.18 33.7188C156.305 32.5469 156.445 31.375 156.602 30.2031C156.758 29.0312 156.898 27.9297 157.023 26.8984C157.148 25.8516 157.211 25 157.211 24.3438C157.211 23.7656 157.086 23.3047 156.836 22.9609C156.586 22.6016 156.211 22.4219 155.711 22.4219ZM165.578 32.3125C165.578 30.6562 165.641 28.9922 165.766 27.3203C165.891 25.6484 166.055 23.9531 166.258 22.2344H164.125L164.383 20.8047H166.445C166.664 19.2109 166.883 17.6172 167.102 16.0234C167.336 14.4141 167.547 12.8047 167.734 11.1953H170.125C170.094 11.5391 170.047 12.0391 169.984 12.6953C169.938 13.3359 169.875 14.0859 169.797 14.9453C169.734 15.7891 169.672 16.7188 169.609 17.7344C169.547 18.7344 169.484 19.7578 169.422 20.8047H173.969L173.734 22.2344H169.328C169.266 23.125 169.211 24 169.164 24.8594C169.117 25.7188 169.07 26.5391 169.023 27.3203C168.992 28.0859 168.969 28.7969 168.953 29.4531C168.938 30.0938 168.93 30.6484 168.93 31.1172C168.93 32.3047 168.961 33.2969 169.023 34.0938C169.102 34.8906 169.211 35.5312 169.352 36.0156C169.508 36.5 169.695 36.8438 169.914 37.0469C170.148 37.25 170.414 37.3516 170.711 37.3516C171.102 37.3516 171.531 37.1562 172 36.7656C172.484 36.3594 172.984 35.8203 173.5 35.1484C174.016 34.4766 174.539 33.6953 175.07 32.8047C175.602 31.8984 176.117 30.9375 176.617 29.9219L176.852 29.4297L177.812 30.1562L177.578 30.6484C176.859 32.1016 176.141 33.4062 175.422 34.5625C174.719 35.7188 174.023 36.7031 173.336 37.5156C172.648 38.3125 171.977 38.9297 171.32 39.3672C170.664 39.7891 170.031 40 169.422 40C168.812 40 168.266 39.8594 167.781 39.5781C167.312 39.2969 166.914 38.8516 166.586 38.2422C166.258 37.6172 166.008 36.8203 165.836 35.8516C165.664 34.8828 165.578 33.7031 165.578 32.3125ZM217.938 26.8984C218.531 26.8984 219.016 26.7344 219.391 26.4062C219.766 26.0781 219.953 25.7109 219.953 25.3047C219.953 25.1016 219.891 24.8984 219.766 24.6953C219.656 24.4922 219.477 24.3125 219.227 24.1562C218.992 24 218.672 23.875 218.266 23.7812C217.875 23.6875 217.398 23.6406 216.836 23.6406C216.102 23.6406 215.391 23.7266 214.703 23.8984C214.016 24.0703 213.32 24.2891 212.617 24.5547C213.273 25.2109 213.797 25.9766 214.188 26.8516C214.578 27.7109 214.773 28.7031 214.773 29.8281C214.773 31.4688 214.445 32.9219 213.789 34.1875C213.148 35.4531 212.281 36.5156 211.188 37.375C210.109 38.2344 208.859 38.8906 207.438 39.3438C206.016 39.7812 204.539 40 203.008 40C201.477 40 199.984 39.7734 198.531 39.3203C197.078 38.8672 195.773 38.1875 194.617 37.2812C193.477 36.375 192.555 35.2344 191.852 33.8594C191.164 32.4844 190.82 30.8828 190.82 29.0547C190.82 27.3672 191.086 25.8906 191.617 24.625C192.164 23.3438 192.859 22.25 193.703 21.3438C194.562 20.4219 195.508 19.6641 196.539 19.0703C197.57 18.4766 198.578 18.0156 199.562 17.6875C198.953 17.375 198.352 16.9922 197.758 16.5391C197.18 16.0859 196.664 15.5781 196.211 15.0156C195.758 14.4531 195.391 13.8359 195.109 13.1641C194.844 12.4766 194.711 11.7422 194.711 10.9609C194.711 9.86719 194.945 8.875 195.414 7.98438C195.883 7.09375 196.492 6.33594 197.242 5.71094C198.008 5.08594 198.875 4.60938 199.844 4.28125C200.812 3.9375 201.805 3.76562 202.82 3.76562C204.039 3.76562 205.086 3.90625 205.961 4.1875C206.836 4.45312 207.547 4.80469 208.094 5.24219C208.641 5.66406 209.039 6.14844 209.289 6.69531C209.555 7.24219 209.688 7.78125 209.688 8.3125C209.688 8.76562 209.602 9.20312 209.43 9.625C209.273 10.0469 209.039 10.4219 208.727 10.75C208.43 11.0625 208.062 11.3125 207.625 11.5C207.188 11.6875 206.703 11.7812 206.172 11.7812C205.766 11.7812 205.398 11.7109 205.07 11.5703C204.742 11.4141 204.453 11.2422 204.203 11.0547C203.953 10.8672 203.75 10.6797 203.594 10.4922C203.438 10.3047 203.336 10.1719 203.289 10.0938L204.062 9.625C204.141 9.70312 204.25 9.79688 204.391 9.90625C204.547 10.0156 204.719 10.125 204.906 10.2344C205.094 10.3281 205.289 10.4141 205.492 10.4922C205.711 10.5547 205.938 10.5859 206.172 10.5859C206.797 10.5859 207.297 10.3594 207.672 9.90625C208.047 9.45312 208.234 8.92188 208.234 8.3125C208.234 7.95312 208.148 7.59375 207.977 7.23438C207.82 6.85938 207.57 6.52344 207.227 6.22656C206.883 5.91406 206.438 5.66406 205.891 5.47656C205.359 5.28906 204.719 5.19531 203.969 5.19531C202.984 5.19531 202.117 5.375 201.367 5.73438C200.617 6.09375 199.992 6.57812 199.492 7.1875C198.992 7.78125 198.609 8.46094 198.344 9.22656C198.094 9.97656 197.969 10.75 197.969 11.5469C197.969 12.1406 198.039 12.7188 198.18 13.2812C198.336 13.8438 198.555 14.375 198.836 14.875C199.133 15.3594 199.5 15.8047 199.938 16.2109C200.391 16.6016 200.922 16.9141 201.531 17.1484C201.844 17.0703 202.141 17.0234 202.422 17.0078C202.703 16.9766 202.961 16.9609 203.195 16.9609C203.602 16.9609 203.922 17.0234 204.156 17.1484C204.391 17.2578 204.508 17.4219 204.508 17.6406C204.508 17.9688 204.375 18.2188 204.109 18.3906C203.844 18.5625 203.492 18.6484 203.055 18.6484C202.789 18.6484 202.5 18.625 202.188 18.5781C201.891 18.5312 201.57 18.4531 201.227 18.3438C200.148 18.5938 199.203 19.0312 198.391 19.6562C197.578 20.2656 196.898 21 196.352 21.8594C195.805 22.7188 195.391 23.6641 195.109 24.6953C194.844 25.7109 194.711 26.75 194.711 27.8125C194.711 29.0938 194.906 30.3594 195.297 31.6094C195.703 32.8594 196.312 33.9766 197.125 34.9609C197.938 35.9453 198.945 36.7422 200.148 37.3516C201.352 37.9609 202.766 38.2656 204.391 38.2656C205.531 38.2656 206.633 38.0859 207.695 37.7266C208.773 37.3672 209.719 36.8359 210.531 36.1328C211.359 35.4297 212.023 34.5625 212.523 33.5312C213.023 32.5 213.273 31.3125 213.273 29.9688C213.273 28.8906 213.094 27.9453 212.734 27.1328C212.375 26.3047 211.898 25.6016 211.305 25.0234C210.664 25.2891 210.023 25.5547 209.383 25.8203C208.758 26.0859 208.109 26.3281 207.438 26.5469C206.781 26.7656 206.109 26.9453 205.422 27.0859C204.734 27.2109 204.023 27.2734 203.289 27.2734C202.727 27.2734 202.234 27.2031 201.812 27.0625C201.406 26.9219 201.062 26.7422 200.781 26.5234C200.516 26.2891 200.312 26.0234 200.172 25.7266C200.047 25.4297 199.984 25.1172 199.984 24.7891C199.984 24.2891 200.117 23.8438 200.383 23.4531C200.664 23.0625 201.039 22.7344 201.508 22.4688C201.977 22.1875 202.523 21.9766 203.148 21.8359C203.789 21.6953 204.461 21.625 205.164 21.625C205.914 21.625 206.688 21.7109 207.484 21.8828C208.297 22.0391 209.094 22.2891 209.875 22.6328C210.859 22.1484 211.898 21.7188 212.992 21.3438C214.086 20.9531 215.273 20.7578 216.555 20.7578C217.414 20.7578 218.156 20.875 218.781 21.1094C219.406 21.3281 219.922 21.6172 220.328 21.9766C220.75 22.3359 221.055 22.7422 221.242 23.1953C221.445 23.6484 221.547 24.1016 221.547 24.5547C221.547 24.9766 221.469 25.3828 221.312 25.7734C221.156 26.1641 220.922 26.5156 220.609 26.8281C220.312 27.1406 219.945 27.3906 219.508 27.5781C219.07 27.7656 218.578 27.8594 218.031 27.8594L217.938 26.8984ZM205.164 22.7266C204.273 22.7266 203.531 22.8516 202.938 23.1016C202.344 23.3359 202.047 23.6562 202.047 24.0625C202.047 24.3125 202.188 24.5234 202.469 24.6953C202.75 24.8516 203.203 24.9297 203.828 24.9297C204.547 24.9297 205.289 24.7734 206.055 24.4609C206.836 24.1484 207.664 23.7734 208.539 23.3359C207.945 23.1172 207.359 22.9609 206.781 22.8672C206.203 22.7734 205.664 22.7266 205.164 22.7266ZM249.859 13.3516C250.703 12.6328 251.352 11.75 251.805 10.7031C252.273 9.64062 252.508 8.44531 252.508 7.11719C252.508 6.39844 252.414 5.71875 252.227 5.07812C252.055 4.4375 251.789 3.88281 251.43 3.41406C251.086 2.92969 250.656 2.54688 250.141 2.26562C249.641 1.98438 249.07 1.84375 248.43 1.84375C247.883 1.84375 247.359 1.96875 246.859 2.21875C246.375 2.45312 245.945 2.8125 245.57 3.29688C245.195 3.76562 244.891 4.36719 244.656 5.10156C244.438 5.82031 244.328 6.65625 244.328 7.60938C244.328 8.5625 244.398 9.70312 244.539 11.0312C244.695 12.3438 244.867 13.8125 245.055 15.4375C245.242 17.0469 245.406 18.7891 245.547 20.6641C245.703 22.5391 245.781 24.5078 245.781 26.5703C245.781 27.6328 245.688 28.6406 245.5 29.5938C245.328 30.5312 245.078 31.4062 244.75 32.2188C244.422 33.0312 244.031 33.7812 243.578 34.4688C243.141 35.1562 242.656 35.7812 242.125 36.3438C243 36.75 243.859 37.1953 244.703 37.6797C245.562 38.1641 246.406 38.6562 247.234 39.1562C248.062 39.6406 248.898 40.1094 249.742 40.5625C250.586 41.0312 251.438 41.4375 252.297 41.7812C253.156 42.1406 254.039 42.4297 254.945 42.6484C255.852 42.8672 256.797 42.9766 257.781 42.9766C259.641 42.9766 261.078 42.7031 262.094 42.1562L262.586 42.7891C262.258 43.0703 261.805 43.3672 261.227 43.6797C260.664 44.0078 260.023 44.3047 259.305 44.5703C258.602 44.8516 257.852 45.0781 257.055 45.25C256.258 45.4375 255.461 45.5312 254.664 45.5312C252.961 45.5312 251.391 45.2891 249.953 44.8047C248.516 44.3359 247.188 43.75 245.969 43.0469C244.75 42.3438 243.617 41.5859 242.57 40.7734C241.523 39.9609 240.531 39.2109 239.594 38.5234C238.672 39.1016 237.742 39.5312 236.805 39.8125C235.883 40.0938 235.031 40.2344 234.25 40.2344C233.594 40.2344 233.047 40.1562 232.609 40C232.156 39.8281 231.797 39.6172 231.531 39.3672C231.25 39.1172 231.055 38.8359 230.945 38.5234C230.82 38.2109 230.758 37.9062 230.758 37.6094C230.758 37.25 230.867 36.8984 231.086 36.5547C231.305 36.2109 231.625 35.9062 232.047 35.6406C232.453 35.3594 232.945 35.1406 233.523 34.9844C234.102 34.8125 234.75 34.7266 235.469 34.7266C236.266 34.7266 237.031 34.7969 237.766 34.9375C238.516 35.0781 239.25 35.2578 239.969 35.4766C240.547 34.5703 241.016 33.4531 241.375 32.125C241.75 30.7812 241.938 29.1641 241.938 27.2734C241.938 25.2109 241.859 23.3359 241.703 21.6484C241.562 19.9453 241.398 18.3516 241.211 16.8672C241.039 15.3672 240.875 13.9297 240.719 12.5547C240.578 11.1641 240.508 9.75 240.508 8.3125C240.508 7.04688 240.734 5.9375 241.188 4.98438C241.656 4.01563 242.25 3.21094 242.969 2.57031C243.703 1.92969 244.523 1.45312 245.43 1.14062C246.352 0.8125 247.266 0.648438 248.172 0.648438C249.188 0.648438 250.117 0.804688 250.961 1.11719C251.82 1.42969 252.555 1.85938 253.164 2.40625C253.789 2.9375 254.273 3.57031 254.617 4.30469C254.961 5.02344 255.133 5.80469 255.133 6.64844C255.133 7.55469 254.984 8.40625 254.688 9.20312C254.391 9.98438 254.016 10.7031 253.562 11.3594C253.125 12 252.641 12.5703 252.109 13.0703C251.578 13.5703 251.07 13.9844 250.586 14.3125L249.859 13.3516ZM234.25 39.0391C234.844 39.0391 235.484 38.9297 236.172 38.7109C236.859 38.4766 237.531 38.0938 238.188 37.5625C237.531 37.1562 236.898 36.8203 236.289 36.5547C235.695 36.2891 235.102 36.1562 234.508 36.1562C233.82 36.1562 233.25 36.2812 232.797 36.5312C232.328 36.7656 232.094 37.125 232.094 37.6094C232.094 38.0938 232.289 38.4531 232.68 38.6875C233.07 38.9219 233.594 39.0391 234.25 39.0391ZM273.344 30.1562L273.086 30.6484C272.555 31.7109 271.844 32.5625 270.953 33.2031C270.078 33.8281 269.125 34.2344 268.094 34.4219C267.812 35.2188 267.445 35.9609 266.992 36.6484C266.555 37.3203 266.047 37.9062 265.469 38.4062C264.906 38.9062 264.266 39.2969 263.547 39.5781C262.844 39.8594 262.078 40 261.25 40C260.047 40 258.961 39.75 257.992 39.25C257.039 38.7344 256.227 38.0469 255.555 37.1875C254.883 36.3125 254.367 35.2969 254.008 34.1406C253.648 32.9688 253.469 31.7188 253.469 30.3906C253.469 29.2344 253.602 28.1875 253.867 27.25C254.133 26.2969 254.469 25.4531 254.875 24.7188C255.281 23.9688 255.734 23.3203 256.234 22.7734C256.734 22.2109 257.227 21.75 257.711 21.3906C258.195 21.0312 258.633 20.7656 259.023 20.5938C259.43 20.4062 259.734 20.3125 259.938 20.3125L260.242 21.1328C259.602 21.6016 259.031 22.2578 258.531 23.1016C258.094 23.8203 257.695 24.7734 257.336 25.9609C256.992 27.1484 256.82 28.625 256.82 30.3906C256.82 31.4688 256.922 32.5156 257.125 33.5312C257.328 34.5469 257.625 35.4453 258.016 36.2266C258.406 37.0078 258.883 37.6328 259.445 38.1016C260.023 38.5703 260.672 38.8047 261.391 38.8047C262.375 38.8047 263.188 38.4141 263.828 37.6328C264.484 36.8359 264.969 35.75 265.281 34.375C264.469 34.2031 263.695 33.8828 262.961 33.4141C262.227 32.9453 261.578 32.3672 261.016 31.6797C260.453 30.9766 260 30.1719 259.656 29.2656C259.328 28.3594 259.164 27.375 259.164 26.3125C259.164 25.4375 259.273 24.6719 259.492 24.0156C259.727 23.3438 260.031 22.7891 260.406 22.3516C260.781 21.8984 261.211 21.5625 261.695 21.3438C262.195 21.1094 262.719 20.9922 263.266 20.9922C263.906 20.9922 264.562 21.1797 265.234 21.5547C265.906 21.9141 266.516 22.4609 267.062 23.1953C267.609 23.9141 268.055 24.8203 268.398 25.9141C268.742 27.0078 268.914 28.2812 268.914 29.7344C268.914 30.2812 268.883 30.8203 268.82 31.3516C268.758 31.8828 268.664 32.3984 268.539 32.8984C269.289 32.6797 269.969 32.3281 270.578 31.8438C271.203 31.3594 271.719 30.7188 272.125 29.9219L272.383 29.4297L273.344 30.1562ZM260.711 26.125C260.711 27.0469 260.836 27.8984 261.086 28.6797C261.352 29.4453 261.703 30.125 262.141 30.7188C262.578 31.2969 263.086 31.7812 263.664 32.1719C264.242 32.5625 264.859 32.8359 265.516 32.9922C265.594 32.5547 265.641 32.1016 265.656 31.6328C265.688 31.1484 265.703 30.6562 265.703 30.1562C265.703 29.0469 265.617 28.0469 265.445 27.1562C265.273 26.25 265.047 25.4844 264.766 24.8594C264.484 24.2188 264.156 23.7266 263.781 23.3828C263.406 23.0391 263.023 22.8672 262.633 22.8672C262.102 22.8672 261.648 23.1562 261.273 23.7344C260.898 24.2969 260.711 25.0938 260.711 26.125ZM282.016 34.9141C281.938 35.0391 281.82 35.2578 281.664 35.5703C281.523 35.8672 281.336 36.2031 281.102 36.5781C280.883 36.9531 280.617 37.3438 280.305 37.75C280.008 38.1562 279.664 38.5234 279.273 38.8516C278.883 39.1797 278.445 39.4531 277.961 39.6719C277.492 39.8906 276.969 40 276.391 40C275.938 40 275.469 39.9062 274.984 39.7188C274.5 39.5312 274.047 39.1875 273.625 38.6875C273.219 38.1875 272.883 37.5078 272.617 36.6484C272.352 35.7734 272.219 34.6484 272.219 33.2734C272.219 31.9609 272.266 30.6484 272.359 29.3359C272.453 28.0078 272.562 26.7969 272.688 25.7031C272.828 24.6094 272.961 23.6953 273.086 22.9609C273.211 22.2266 273.305 21.7812 273.367 21.625C273.43 21.4844 273.555 21.3594 273.742 21.25C273.93 21.1406 274.141 21.0547 274.375 20.9922C274.625 20.9297 274.875 20.8828 275.125 20.8516C275.391 20.8203 275.617 20.8047 275.805 20.8047C276.055 20.8047 276.25 20.8672 276.391 20.9922C276.547 21.1172 276.625 21.3281 276.625 21.625C276.625 21.7656 276.594 22.0469 276.531 22.4688C276.484 22.875 276.422 23.375 276.344 23.9688C276.266 24.5625 276.18 25.2188 276.086 25.9375C276.008 26.6562 275.93 27.3906 275.852 28.1406C275.773 28.875 275.703 29.6094 275.641 30.3438C275.594 31.0625 275.57 31.7188 275.57 32.3125C275.57 34.0156 275.75 35.2812 276.109 36.1094C276.484 36.9375 277.094 37.3516 277.938 37.3516C278.656 37.3516 279.383 36.8281 280.117 35.7812C280.867 34.7344 281.516 33.2109 282.062 31.2109C282.141 30.3672 282.211 29.4688 282.273 28.5156C282.352 27.5469 282.422 26.6328 282.484 25.7734C282.547 24.8984 282.602 24.1172 282.648 23.4297C282.711 22.7422 282.766 22.25 282.812 21.9531C282.859 21.7344 282.984 21.5547 283.188 21.4141C283.391 21.2578 283.617 21.1406 283.867 21.0625C284.133 20.9688 284.383 20.9062 284.617 20.875C284.867 20.8281 285.055 20.8047 285.18 20.8047C285.445 20.8047 285.625 20.8672 285.719 20.9922C285.828 21.1016 285.883 21.2812 285.883 21.5312C285.883 21.75 285.859 22.1719 285.812 22.7969C285.781 23.4062 285.734 24.125 285.672 24.9531C285.625 25.7656 285.57 26.6406 285.508 27.5781C285.445 28.5156 285.383 29.4219 285.32 30.2969C285.273 31.1562 285.227 31.9375 285.18 32.6406C285.148 33.3438 285.133 33.875 285.133 34.2344C285.133 35.2969 285.188 36.1328 285.297 36.7422C285.422 37.3516 285.688 37.6562 286.094 37.6562C286.391 37.6562 286.711 37.4688 287.055 37.0938C287.414 36.7031 287.797 36.1641 288.203 35.4766C288.625 34.7891 289.078 33.9766 289.562 33.0391C290.047 32.0859 290.57 31.0469 291.133 29.9219L291.367 29.4297L292.328 30.1562L292.094 30.6484C291.344 32.1328 290.68 33.4609 290.102 34.6328C289.539 35.7891 289 36.7656 288.484 37.5625C287.969 38.3594 287.445 38.9688 286.914 39.3906C286.383 39.7969 285.789 40 285.133 40C284.523 40 284.016 39.8828 283.609 39.6484C283.219 39.4141 282.906 39.0781 282.672 38.6406C282.438 38.2031 282.266 37.6719 282.156 37.0469C282.062 36.4219 282.016 35.7109 282.016 34.9141ZM300.414 22.4219C299.977 22.4219 299.484 22.6172 298.938 23.0078C298.406 23.3984 297.867 23.9062 297.32 24.5312C296.773 25.1406 296.242 25.8281 295.727 26.5938C295.227 27.3594 294.789 28.1172 294.414 28.8672C294.367 30.2422 294.32 31.7422 294.273 33.3672C294.242 34.9922 294.227 36.7266 294.227 38.5703C294.227 38.8047 294.117 39.0156 293.898 39.2031C293.695 39.375 293.453 39.5234 293.172 39.6484C292.891 39.7578 292.602 39.8438 292.305 39.9062C292.008 39.9688 291.766 40 291.578 40C291.344 40 291.125 39.9297 290.922 39.7891C290.719 39.6484 290.617 39.3359 290.617 38.8516C290.617 38.6172 290.641 38.3281 290.688 37.9844C290.734 37.625 290.797 37.2422 290.875 36.8359C290.938 36.4297 291.016 36.0156 291.109 35.5938C291.188 35.1562 291.266 34.75 291.344 34.375V22.9141C291.344 22.6016 291.352 22.3594 291.367 22.1875C291.367 22 291.391 21.8594 291.438 21.7656C291.531 21.5469 291.695 21.375 291.93 21.25C292.164 21.125 292.414 21.0312 292.68 20.9688C292.945 20.8906 293.203 20.8438 293.453 20.8281C293.703 20.8125 293.898 20.8047 294.039 20.8047C294.305 20.8047 294.484 20.875 294.578 21.0156C294.688 21.1562 294.742 21.4062 294.742 21.7656C294.742 21.7188 294.703 22.1016 294.625 22.9141C294.562 23.7266 294.508 24.8906 294.461 26.4062C294.93 25.6719 295.438 24.9688 295.984 24.2969C296.531 23.625 297.102 23.0312 297.695 22.5156C298.289 22 298.898 21.5859 299.523 21.2734C300.164 20.9609 300.812 20.8047 301.469 20.8047C302.641 20.8047 303.5 21.1797 304.047 21.9297C304.594 22.6641 304.867 23.6641 304.867 24.9297C304.867 25.7266 304.812 26.6172 304.703 27.6016C304.609 28.5703 304.492 29.5625 304.352 30.5781C304.227 31.5781 304.109 32.5625 304 33.5312C303.906 34.4844 303.859 35.3594 303.859 36.1562C303.859 37.1875 304.18 37.7031 304.82 37.7031C305.023 37.7031 305.258 37.6016 305.523 37.3984C305.805 37.1797 306.148 36.7812 306.555 36.2031C306.977 35.625 307.477 34.8359 308.055 33.8359C308.633 32.8203 309.32 31.5156 310.117 29.9219L310.352 29.4297L311.312 30.1562L311.078 30.6484C310.141 32.5234 309.305 34.0625 308.57 35.2656C307.852 36.4688 307.195 37.4219 306.602 38.125C306.008 38.8281 305.453 39.3203 304.938 39.6016C304.422 39.8672 303.906 40 303.391 40C303.062 40 302.734 39.9531 302.406 39.8594C302.078 39.7656 301.789 39.6016 301.539 39.3672C301.289 39.1328 301.086 38.8203 300.93 38.4297C300.773 38.0234 300.695 37.5078 300.695 36.8828C300.695 35.9453 300.758 34.8906 300.883 33.7188C301.008 32.5469 301.148 31.375 301.305 30.2031C301.461 29.0312 301.602 27.9297 301.727 26.8984C301.852 25.8516 301.914 25 301.914 24.3438C301.914 23.7656 301.789 23.3047 301.539 22.9609C301.289 22.6016 300.914 22.4219 300.414 22.4219ZM316.914 48.8828C316.914 48.1953 317.039 47.5 317.289 46.7969C317.555 46.0938 317.914 45.375 318.367 44.6406C318.82 43.9062 319.344 43.1406 319.938 42.3438C320.547 41.5625 321.203 40.75 321.906 39.9062V35.4766C321.531 36.2109 321.109 36.8594 320.641 37.4219C320.172 37.9844 319.672 38.4609 319.141 38.8516C318.625 39.2266 318.086 39.5156 317.523 39.7188C316.977 39.9062 316.438 40 315.906 40C315.172 40 314.461 39.8203 313.773 39.4609C313.102 39.1016 312.5 38.5625 311.969 37.8438C311.438 37.1094 311.016 36.1875 310.703 35.0781C310.391 33.9688 310.234 32.6641 310.234 31.1641C310.234 29.8984 310.383 28.6484 310.68 27.4141C310.977 26.1797 311.422 25.0781 312.016 24.1094C312.609 23.125 313.344 22.3281 314.219 21.7188C315.094 21.1094 316.117 20.8047 317.289 20.8047C318.211 20.8047 319.07 20.9922 319.867 21.3672C320.68 21.7422 321.359 22.2891 321.906 23.0078V22.7266C321.906 22.4297 321.992 22.1641 322.164 21.9297C322.352 21.6797 322.578 21.4766 322.844 21.3203C323.125 21.1484 323.414 21.0234 323.711 20.9453C324.023 20.8516 324.297 20.8047 324.531 20.8047C324.797 20.8047 324.984 20.8438 325.094 20.9219C325.203 20.9844 325.258 21.1016 325.258 21.2734C325.258 21.5234 325.227 22.0859 325.164 22.9609C325.102 23.8359 325.07 25.1172 325.07 26.8047V36.9766C325.461 36.4922 325.875 35.9531 326.312 35.3594C326.75 34.7656 327.188 34.1484 327.625 33.5078C328.062 32.8516 328.484 32.1797 328.891 31.4922C329.312 30.8047 329.703 30.1172 330.062 29.4297L330.297 28.9609L331.258 29.6875L331.023 30.1562C330.648 30.9062 330.211 31.6875 329.711 32.5C329.227 33.2969 328.711 34.0859 328.164 34.8672C327.633 35.6328 327.094 36.375 326.547 37.0938C326.016 37.7969 325.523 38.4297 325.07 38.9922V44.0781C325.07 45.5156 324.938 46.7344 324.672 47.7344C324.422 48.75 324.07 49.5703 323.617 50.1953C323.18 50.8359 322.648 51.2969 322.023 51.5781C321.414 51.8594 320.75 52 320.031 52C319.141 52 318.398 51.7188 317.805 51.1562C317.211 50.6094 316.914 49.8516 316.914 48.8828ZM317.336 37.6094C317.82 37.6094 318.297 37.4688 318.766 37.1875C319.25 36.9062 319.695 36.5469 320.102 36.1094C320.508 35.6719 320.867 35.1953 321.18 34.6797C321.508 34.1484 321.75 33.6328 321.906 33.1328V26.5234C321.906 25.8203 321.797 25.1875 321.578 24.625C321.359 24.0469 321.07 23.5625 320.711 23.1719C320.352 22.7656 319.938 22.4531 319.469 22.2344C319.016 22.0156 318.547 21.9062 318.062 21.9062C317.312 21.9062 316.656 22.1328 316.094 22.5859C315.531 23.0234 315.062 23.6094 314.688 24.3438C314.312 25.0625 314.031 25.8906 313.844 26.8281C313.672 27.7656 313.586 28.7188 313.586 29.6875C313.586 30.8906 313.656 31.9766 313.797 32.9453C313.953 33.9141 314.188 34.75 314.5 35.4531C314.812 36.1406 315.203 36.6719 315.672 37.0469C316.141 37.4219 316.695 37.6094 317.336 37.6094ZM319.773 50.5703C320.023 50.5703 320.273 50.5156 320.523 50.4062C320.789 50.3125 321.023 50.0859 321.227 49.7266C321.43 49.3672 321.594 48.8359 321.719 48.1328C321.844 47.4297 321.906 46.4766 321.906 45.2734V41.7812C320.828 43.0781 319.945 44.3047 319.258 45.4609C318.586 46.6328 318.25 47.7266 318.25 48.7422C318.25 49.2266 318.383 49.6484 318.648 50.0078C318.914 50.3828 319.289 50.5703 319.773 50.5703ZM337.211 37.3516C337.758 37.3516 338.312 37.2109 338.875 36.9297C339.453 36.6484 340.031 36.2109 340.609 35.6172C341.203 35.0234 341.812 34.2578 342.438 33.3203C343.062 32.3672 343.703 31.2344 344.359 29.9219L344.594 29.4297L345.555 30.1562L345.32 30.6484C344.477 32.3203 343.633 33.75 342.789 34.9375C341.961 36.125 341.141 37.0938 340.328 37.8438C339.531 38.5938 338.742 39.1406 337.961 39.4844C337.18 39.8281 336.43 40 335.711 40C334.695 40 333.789 39.7891 332.992 39.3672C332.195 38.9453 331.523 38.375 330.977 37.6562C330.43 36.9219 330.016 36.0781 329.734 35.125C329.438 34.1562 329.289 33.1406 329.289 32.0781C329.289 30.3906 329.523 28.8594 329.992 27.4844C330.445 26.0938 331.055 24.9062 331.82 23.9219C332.602 22.9375 333.484 22.1719 334.469 21.625C335.453 21.0781 336.477 20.8047 337.539 20.8047C338.617 20.8047 339.438 21.0781 340 21.625C340.578 22.1719 340.867 22.8594 340.867 23.6875C340.867 24.4844 340.641 25.2344 340.188 25.9375C339.734 26.625 339.117 27.3047 338.336 27.9766C337.57 28.6328 336.68 29.2891 335.664 29.9453C334.648 30.5859 333.578 31.25 332.453 31.9375C332.562 32.75 332.75 33.4922 333.016 34.1641C333.281 34.8203 333.617 35.3906 334.023 35.875C334.43 36.3438 334.898 36.7109 335.43 36.9766C335.961 37.2266 336.555 37.3516 337.211 37.3516ZM337.938 24.3906C337.938 23.7656 337.766 23.2734 337.422 22.9141C337.094 22.5547 336.688 22.375 336.203 22.375C335.797 22.375 335.367 22.5234 334.914 22.8203C334.461 23.1016 334.047 23.5625 333.672 24.2031C333.297 24.8281 332.984 25.6328 332.734 26.6172C332.484 27.6016 332.359 28.7969 332.359 30.2031V30.7422C332.891 30.4609 333.477 30.0938 334.117 29.6406C334.773 29.1719 335.383 28.6562 335.945 28.0938C336.508 27.5312 336.977 26.9375 337.352 26.3125C337.742 25.6719 337.938 25.0312 337.938 24.3906Z" fill="black"/>
</svg>
